<?xml version="1.0" standalone="no"?>
<!DOCTYPE svg PUBLIC "-//W3C//DTD SVG 20010904//EN"
 "http://www.w3.org/TR/2001/REC-SVG-20010904/DTD/svg10.dtd">
<svg version="1.0" xmlns="http://www.w3.org/2000/svg"
 width="1024.000000pt" height="1024.000000pt" viewBox="0 0 1024.000000 1024.000000"
 preserveAspectRatio="xMidYMid meet">
<metadata>
Created by potrace 1.11, written by Peter Selinger 2001-2013
</metadata>
<g transform="translate(0.000000,1024.000000) scale(0.100000,-0.100000)"
fill="#000000" stroke="none">
<path d="M3640 8902 c-14 -2 -26 -35 -90 -247 -19 -64 -139 -447 -220 -705
-27 -85 -68 -216 -91 -290 -23 -74 -56 -182 -74 -240 -69 -218 -138 -438 -162
-515 -13 -44 -38 -123 -55 -175 -17 -52 -32 -99 -33 -105 -1 -5 -5 -17 -8 -25
-3 -8 -19 -60 -36 -115 -16 -55 -83 -266 -147 -470 -64 -203 -120 -383 -124
-400 -4 -16 -22 -75 -40 -130 -17 -55 -43 -135 -56 -177 -13 -43 -35 -113 -48
-155 -13 -43 -38 -121 -54 -173 -17 -52 -60 -192 -97 -310 -37 -118 -75 -240
-84 -270 -28 -87 -65 -204 -67 -215 -1 -5 -20 -66 -42 -135 -22 -69 -57 -179
-77 -245 -21 -66 -45 -145 -55 -175 -10 -30 -37 -116 -60 -190 -23 -74 -56
-182 -75 -240 -18 -58 -52 -166 -75 -240 -23 -74 -46 -151 -53 -170 -6 -19
-12 -39 -13 -45 -2 -5 -32 -104 -69 -220 -86 -273 -193 -620 -191 -622 0 0
114 -4 251 -8 138 -3 320 -8 405 -11 85 -2 236 -6 335 -9 99 -2 277 -7 395
-10 l215 -6 59 173 c33 95 105 308 161 473 l102 300 1204 2 1204 3 49 -173
c26 -94 52 -183 57 -197 5 -14 11 -35 14 -48 2 -12 15 -60 28 -105 14 -45 27
-91 30 -102 3 -11 40 -139 82 -285 42 -146 78 -272 80 -280 2 -8 21 -75 41
-148 l38 -133 1557 2 1557 1 -32 67 c-107 220 -2717 5424 -2726 5436 -4 6 -10
17 -12 25 -2 8 -82 173 -179 365 -97 193 -176 353 -175 356 0 3 -4 12 -11 20
-6 8 -155 302 -332 654 l-320 640 -933 0 c-514 0 -940 -1 -948 -3z m944 -1878
c2 -10 43 -156 91 -324 47 -168 138 -487 201 -710 106 -375 174 -612 261 -915
19 -66 36 -127 38 -135 2 -8 26 -96 55 -195 28 -99 53 -187 55 -195 2 -8 18
-64 35 -125 18 -60 33 -117 35 -125 2 -8 11 -37 19 -65 9 -27 16 -55 16 -62 0
-10 -184 -12 -820 -12 l-820 0 6 27 c3 15 8 34 11 42 3 8 7 20 8 25 2 6 10 37
20 70 9 33 27 98 39 145 32 116 193 690 216 770 11 36 42 148 71 250 28 102
71 257 96 345 25 88 60 214 78 280 19 66 50 179 70 250 19 72 44 159 55 195
10 36 42 148 70 250 67 244 70 254 81 243 5 -5 11 -18 13 -29z"/>
</g>
</svg>
